<svg width="1068.4px" height="1000px" viewBox="0 0 1068.4 1000" xmlns="http://www.w3.org/2000/svg" xmlns:xlink="http://www.w3.org/1999/xlink">
  <defs/>
  <g>
    <path stroke="none" fill="#7F00FF" d="M648.3 475.4 L648.4 475.35 648.65 475.4 648.8 475.5 649 475.8 649.05 476 649.05 629.5 648.95 778.5 648.9 780 648.8 781.5 648.6 783.05 648.3 784.55 647.55 787.55 646.5 790.4 603.2 892.5 559.75 994.55 557.45 999.55 557.2 999.85 556.85 999.95 556.7 999.95 556.25 999.8 556.1 999.65 555.95 999.25 555.95 845.1 556.05 696.1 556.1 694.65 556.4 691.75 556.65 690.3 557.4 687.5 558.4 684.7 601.9 582.1 645.5 479.5 646.05 478.25 646.75 477 647.65 475.8 648.05 475.45 648.3 475.4 M445.05 480.65 L445 480.65 445.35 480.75 445.6 481.05 449.6 490.85 487.4 586.65 525.15 682.5 525.95 684.85 526.6 687.3 527.05 689.8 527.15 691.1 527.2 692.3 527.3 842.4 527.3 996.55 527.25 996.75 527 997.1 526.4 997.3 526.05 997.2 525.8 996.9 524.15 993.35 445.65 794.4 445.05 792.7 444.6 790.95 444.3 789.15 444.2 787.3 444.15 482.6 444.3 481.1 444.55 480.8 445.05 480.65 M789.85 336.65 L789.95 336.6 790.2 336.65 790.5 336.9 790.6 337.25 790.6 492.95 790.7 642.8 790.65 644.25 790.5 645.65 790.2 646.95 789.75 648.25 789.2 649.4 788.5 650.55 787.65 651.6 786.55 652.75 734.3 703.2 682.05 753.75 678.4 756.9 678.2 757 677.95 757.05 677.7 757 677.5 756.85 677.35 756.65 677.3 756.4 677.3 601.05 677.2 451.5 677.25 449.9 677.4 448.4 677.7 446.95 678.15 445.6 678.8 444.25 679.6 443 680.5 441.85 681.7 440.6 733.35 390.75 784.95 340.8 789.4 336.8 789.6 336.7 789.85 336.65 M272.95 322.15 L272.9 322.25 273.25 322.35 274.4 323.05 275.95 324.15 344.3 382 412.65 440 413.25 440.55 413.75 441.15 414.3 441.95 414.75 442.7 415.15 443.55 415.45 444.4 415.65 445.2 415.75 446.05 415.85 599.25 415.85 752.4 415.65 754.2 415.5 754.5 415.2 754.7 414.95 754.75 414.7 754.7 414.5 754.6 276.15 637.6 275.25 636.8 274.45 635.95 273.75 635.1 273.15 634.1 272.7 633.1 272.4 632 272.2 630.9 272.15 629.5 272.25 478 272.25 322.85 272.35 322.5 272.6 322.25 272.95 322.15 M1062.3 72.95 L1062.35 72.85 1062.65 72.9 1062.9 73.15 1063 73.5 1063 229 1063.1 378.85 1063.05 380.35 1062.85 381.85 1062.55 383.2 1062.1 384.5 1061.5 385.75 1060.75 386.95 1059.85 388.1 1058.75 389.25 941.3 502.8 823.9 616.4 820.35 619.75 820.15 619.9 819.9 619.95 819.7 619.9 819.4 619.7 819.25 619.35 818.9 616.6 818.85 615.6 818.85 464.1 818.95 312.55 819 311.6 819.15 310.6 819.4 309.6 819.75 308.65 820.2 307.7 820.7 306.8 821.25 306 821.95 305.25 940.85 190 1059.9 74.75 1061.9 73.1 1062.3 72.95 M1067 -0.05 L1067.05 -0.05 1067.35 0 1067.6 0.15 1068.15 0.8 1068.3 1.05 1068.3 1.35 1068.2 1.6 1068 1.8 1064.7 3.9 1063.55 4.85 845.5 215.85 627.6 426.95 626.2 428.35 624.85 429.85 623.6 431.45 622.4 433.1 621.3 434.8 620.3 436.55 619.35 438.35 618.5 440.15 581.35 527.1 544.3 614.15 542.1 618.85 541.85 619.15 541.5 619.25 541.15 619.15 540.9 618.85 538.4 613.2 501.95 520.8 465.4 428.45 464.9 427.3 464.3 426.15 463.65 425 462.9 423.9 462.1 422.85 461.25 421.85 460.35 420.9 459.4 420.05 233.5 228.75 7.55 37.5 3.4 33.75 3.25 33.55 3.2 33.2 3.35 32.85 3.75 32.45 4.05 32.4 4.35 32.45 12.95 36.55 271.25 162.5 529.5 288.55 531.05 289.25 532.5 289.7 533.85 289.95 535.15 289.95 536.45 289.75 537.75 289.3 539.1 288.65 540.5 287.75 710.25 168.55 880.15 49.5 881.65 48.5 883.2 47.55 884.8 46.7 886.45 45.9 888.15 45.15 889.85 44.5 891.55 43.95 893.25 43.45 979.15 21.8 1065.15 0.3 1067 -0.05 M0.75 91.2 L0.75 91.15 1 91.2 1.2 91.3 59.2 140.3 149.8 217 240.35 293.85 241.05 294.5 241.65 295.2 242.25 296.05 242.8 296.95 243.25 297.9 243.6 298.85 243.85 299.8 243.95 300.8 244.1 453.45 244.1 606.15 243.95 608.3 243.85 608.65 243.6 608.9 243.3 608.95 242.9 608.8 238.65 605.55 121.1 506.05 3.55 406.4 2.85 405.75 2.2 405 1.6 404.15 1.1 403.2 0.65 402.25 0.3 401.25 0.1 400.3 0.05 399.4 -0.1 247.35 -0.1 95.2 0.1 91.85 0.2 91.5 0.5 91.25 0.75 91.2 M579.45 81 L579.4 81.1 581.55 81.1 583.7 81.25 585.7 81.55 587.6 82 589.4 82.6 591.2 83.35 592.9 84.25 594.5 85.25 596 86.35 597.5 87.65 598.9 89 600.2 90.45 601.45 92 602.65 93.65 603.75 95.4 604.8 97.2 606.1 99.7 607.3 102.2 608.4 104.75 609.4 107.3 610.3 109.9 611.1 112.5 611.85 115.15 612.5 117.8 613.65 123.15 614.55 128.55 615.3 134 615.9 139.45 616.95 151.55 619.45 187.95 619.5 189.15 619.45 190.3 619.25 191.35 618.9 192.35 618.4 193.3 617.65 194.25 616.8 195 615.65 195.85 569.75 226.2 523.95 256.8 522.75 257.55 521.6 258.1 520.45 258.45 519.35 258.6 518.35 258.6 517.1 258.4 515.9 258.05 514.65 257.5 506.4 253.6 498.05 249.75 481.7 242.3 481.4 242.05 481.3 241.75 481.35 241.4 491.85 219.15 497.1 207.9 499.65 202.25 502.1 196.6 507.95 182.7 513.65 168.75 519.2 154.7 524.55 140.6 525.9 136.6 526.35 134.9 526.65 133.35 526.75 132 526.7 130.85 526.5 129.8 526.05 128.85 525.45 128.05 524.65 127.35 523.65 126.75 522.4 126.2 520.95 125.7 519.25 125.2 515.1 124.3 511.05 123.55 507 122.9 505 122.65 503 122.5 501 122.4 499 122.4 497 122.55 495 122.8 492.95 123.2 490.95 123.75 488.95 124.5 486.95 125.4 484.95 126.5 483.8 127.25 483.45 127.35 483.15 127.3 482.9 127.05 482.8 126.7 482.8 124 482.9 122.25 483.1 120.55 483.35 118.85 483.7 117.2 484.1 115.6 484.6 114.05 485.15 112.55 485.8 111.05 487.25 108.2 488.95 105.45 490.9 102.75 492.75 100.5 494.7 98.45 496.75 96.55 498.85 94.8 501.05 93.2 503.3 91.75 505.65 90.45 508.05 89.25 510.5 88.2 513 87.25 515.55 86.4 518.15 85.7 520.8 85.1 523.45 84.55 526.15 84.1 528.85 83.75 535.15 83.1 541.45 82.55 547.75 82.15 554.1 81.85 579.45 81"/>
  </g>
</svg>