<svg width="1000.4px" height="1000.3px" viewBox="0 0 1000.4 1000.3" xmlns="http://www.w3.org/2000/svg" xmlns:xlink="http://www.w3.org/1999/xlink">
  <defs/>
  <g>
    <path stroke="none" fill="#029E4C" d="M499.1 -0.1 L499.25 -0.25 513.45 -0.05 527.8 0.55 542.35 1.6 549.7 2.3 564.5 4 579.4 6.15 594.45 8.75 602 10.25 617.15 13.6 624.75 15.45 640 19.55 647.65 21.8 662.95 26.75 670.6 29.4 685.85 35.15 693.45 38.25 708.65 44.9 716.25 48.45 731.35 56 738.85 60 753.8 68.5 761.25 73 776 82.45 791.4 93.15 799.35 99 814.75 111 829.5 123.4 836.65 129.75 850.45 142.75 863.6 156.1 869.95 162.9 882.15 176.8 888 183.85 899.3 198.2 904.7 205.5 915.05 220.3 924.8 235.35 929.45 242.95 938.3 258.35 942.5 266.1 950.45 281.8 954.2 289.7 961.25 305.65 967.7 321.75 970.7 329.85 976.25 346.15 978.8 354.35 983.5 370.8 985.6 379.05 989.4 395.55 991.1 403.8 994.05 420.35 995.3 428.65 997.4 445.2 998.25 453.5 999.5 470.05 999.9 478.3 1000.3 494.75 1000.15 511.1 999.85 519.25 998.9 535.45 997.4 551.5 996.45 559.5 994.2 574.85 993.8 575.35 974.35 575.4 900.35 576.1 824.7 577.15 821.65 576.9 818.9 576.35 815.3 574.9 813.05 573.45 810 570.7 807.15 567.1 521.35 162.45 518.85 159.2 516.8 157.15 514.25 155.2 513.05 154.45 512.85 154.55 512.4 481.9 512.5 484.45 512.8 486.7 513.35 488.8 514.7 491.55 516.75 493.95 518.55 495.45 520.75 496.85 907 719.6 909.6 720.9 911.55 721.5 913.9 721.8 914.9 721.8 915 721.65 834.95 605.35 834.9 604.7 835.45 604.35 987.55 604.35 988.05 604.6 988.2 605.1 985.85 617 984.45 623.3 981.3 636.05 979.55 642.45 975.7 655.35 973.6 661.8 969.05 674.8 966.6 681.3 961.35 694.35 958.55 700.9 952.6 713.95 949.45 720.5 942.8 733.55 939.3 740.05 931.9 753 928.05 759.45 919.95 772.25 915.75 778.6 906.95 791.2 902.4 797.45 892.9 809.85 888 815.95 877.8 828.05 867.15 839.95 861.65 845.8 850.3 857.3 844.45 862.95 832.4 874.05 826.2 879.5 813.45 890.1 800.2 900.4 793.4 905.4 779.45 915.15 765.05 924.5 757.65 929 742.55 937.7 727 945.95 719.05 949.9 702.75 957.45 686 964.5 669.1 970.9 652.4 976.55 644 979.15 627.2 983.85 610.4 987.95 602 989.75 585.15 992.9 568.3 995.5 559.9 996.55 543.1 998.25 526.35 999.4 518 999.75 501.35 1000.05 484.8 999.8 476.55 999.45 460.15 998.4 443.9 996.8 435.8 995.8 419.75 993.45 403.85 990.6 395.95 989 380.3 985.45 372.55 983.5 357.25 979.25 349.65 976.95 334.65 972 319.9 966.6 312.65 963.75 298.3 957.7 291.25 954.5 277.35 947.85 270.5 944.35 257.05 937.1 243.95 929.45 237.55 925.5 224.95 917.3 212.75 908.75 206.8 904.35 200.95 899.85 189.85 890.9 189.65 890.55 189.7 890.15 193.55 883 251.05 781.35 270.1 747.35 271.6 744.9 273.25 742.8 275.9 740.35 279 738.55 282.6 737.35 286.7 736.75 378.2 728.7 469.7 720.35 676.15 701.1 784.4 691.4 790.3 690.6 791.15 689.3 790.95 688.3 500.4 519.2 500.2 519.2 99.95 750.3 99.85 750.5 100.5 752.65 100.7 752.8 241.5 741.75 241.8 741.8 242.15 742.1 242.1 742.7 167 872.05 166.75 872.3 166.2 872.35 158 864.85 149.75 856.9 141.7 848.8 133.85 840.55 126.2 832.2 118.8 823.7 111.6 815.05 104.6 806.25 97.8 797.3 91.25 788.2 84.9 778.95 78.75 769.55 72.8 760 67.05 750.3 61.5 740.45 56.15 730.45 52.05 722.35 44.3 706.05 40.65 697.85 33.8 681.35 30.6 673.05 24.7 656.4 22 648 17.05 631.15 14.8 622.65 10.8 605.6 9.05 597.05 5.95 579.8 3.5 562.45 2.5 553.75 1 536.25 0.5 527.45 -0.05 509.75 -0.1 500.85 0.25 483 1.25 465.05 3 445.85 5.55 425.85 8.85 406.3 12.85 387.15 17.5 368.45 22.8 350.15 28.75 332.3 35.3 314.9 42.4 297.9 50.05 281.35 58.25 265.25 66.95 249.65 76.1 234.5 85.7 219.8 95.75 205.55 106.2 191.8 117 178.5 122.55 172.05 133.9 159.5 145.55 147.4 157.5 135.8 169.7 124.7 175.9 119.35 188.45 109 201.25 99.15 214.2 89.8 227.3 80.95 233.9 76.7 247.2 68.65 260.6 61.1 267.35 57.5 280.85 50.75 287.6 47.55 301.15 41.6 314.5 36.3 315.05 36.6 321.05 46.25 381.15 148.35 401.35 182.3 403.25 186.1 404.3 189.65 404.55 192.05 404.25 195.6 403.65 198.05 402.15 201.9 195.15 650.45 193.85 653.45 192.7 656.65 191.8 660.15 191.35 663.55 191.6 663.8 482.85 496.1 482.95 495.95 482.95 33.2 482.8 33 481.55 32.65 481.35 32.75 420.55 160.45 420 160.8 419.45 160.5 343.1 27.5 343.25 27 343.45 26.85 352.5 23.4 362.6 19.95 373.15 16.7 384.15 13.7 395.55 10.95 413.4 7.35 425.75 5.3 438.45 3.55 458.05 1.55 478.3 0.3 499.1 -0.1"/>
  </g>
</svg>