<?xml version="1.0" encoding="utf-8"?>
<!DOCTYPE svg PUBLIC "-//W3C//DTD SVG 1.1//EN" "http://www.w3.org/Graphics/SVG/1.1/DTD/svg11.dtd">
<svg version="1.1" id="Layer_1" xmlns="http://www.w3.org/2000/svg" xmlns:xlink="http://www.w3.org/1999/xlink" x="0px" y="0px"
	 width="924px" height="922.637px" viewBox="0 0 924 922.637" enable-background="new 0 0 924 922.637" xml:space="preserve">
<g id="Layer_2">
	<g>
		<path fill="#FF6F00" d="M539,448v28H385v-28H539 M557,430h-18H385h-18v18v28v18h18h154h18v-18v-28V430L557,430z"/>
	</g>
	<g>
		<path fill="#FF6F00" d="M462,295c92.231,0,167,74.769,167,167c0,92.231-74.769,167-167,167s-167-74.769-167-167
			C295,369.769,369.77,295,462,295 M462,284c-24.025,0-47.337,4.708-69.289,13.993c-21.197,8.966-40.232,21.799-56.576,38.143
			c-16.344,16.343-29.177,35.378-38.143,56.576C288.708,414.663,284,437.975,284,462s4.708,47.337,13.993,69.289
			c8.966,21.197,21.799,40.231,38.143,56.576c16.343,16.344,35.378,29.177,56.576,38.143C414.663,635.292,437.975,640,462,640
			s47.337-4.708,69.289-13.992c21.197-8.966,40.232-21.799,56.576-38.143c16.344-16.345,29.177-35.379,38.143-56.576
			C635.292,509.337,640,486.025,640,462s-4.708-47.337-13.992-69.289c-8.966-21.197-21.799-40.232-38.143-56.576
			c-16.344-16.344-35.379-29.177-56.576-38.143C509.337,288.708,486.025,284,462,284L462,284z"/>
	</g>
	<g>
		<path fill="#FF6F00" d="M462,173c159.61,0,289,129.39,289,289c0,159.61-129.39,289-289,289S173,621.61,173,462
			C173,302.39,302.39,173,462,173 M462,162c-40.495,0-79.784,7.934-116.777,23.58c-35.725,15.11-67.807,36.74-95.354,64.288
			c-27.548,27.548-49.177,59.63-64.288,95.355C169.934,382.216,162,421.505,162,462s7.934,79.784,23.58,116.777
			c15.11,35.725,36.74,67.807,64.288,95.354c27.548,27.548,59.63,49.178,95.354,64.288C382.216,754.066,421.505,762,462,762
			s79.784-7.934,116.777-23.58c35.725-15.11,67.807-36.74,95.354-64.288s49.178-59.63,64.288-95.354
			C754.066,541.784,762,502.495,762,462s-7.934-79.784-23.58-116.777c-15.11-35.725-36.74-67.807-64.288-95.355
			c-27.548-27.548-59.63-49.177-95.354-64.288C541.784,169.934,502.495,162,462,162L462,162z"/>
	</g>
	<path fill="#FF6F00" d="M462,20.079l405.892,36.03L903.922,462l-36.03,405.892L462,903.922l-405.892-36.03L20.079,462
		l36.03-405.892L462,20.079 M462,0L37.667,37.667L0,462l37.667,424.333L462,924l424.333-37.667L924,462L886.333,37.667L462,0L462,0z
		"/>
	<g>
		<path fill="#FF6F00" d="M462,26.87L897.13,462L462,897.13L26.87,462L462,26.87 M462,0L0,462l462,462l462-462L462,0L462,0z"/>
	</g>
</g>
</svg>
