<?xml version="1.0" encoding="utf-8"?>
<svg version="1.1" 
	 xmlns="http://www.w3.org/2000/svg" 
	 xmlns:xlink="http://www.w3.org/1999/xlink" 
	 x="0px" y="0px"
	 width="1084.388px" height="1329.5px" 
	 viewBox="-15.936 31.216 1084.388 1329.5"
	 enable-background="new -15.936 31.216 1084.388 1329.5" 
	 xml:space="preserve">
<g id="planet">
	<g>
		<path fill="#FF7100" d="M842.184,808.247c-3.275,17.446-8.22,35.921-15.235,55.483c116.288,71.786,204.14,187.601,241.503,320.282
			C1050.698,1030.396,964.999,893.113,842.184,808.247z"/>
		<path fill="#FF7100" d="M174.819,900.528c-67.144,78.705-111.971,177.185-124.255,283.49
			c28.677-101.844,87.104-193.749,165.302-263.437C201.861,914.296,188.15,907.629,174.819,900.528z"/>
	</g>
</g>
<g id="stars">
	<polyline fill="#FF7100" points="899.623,762.554 899.623,762.593 899.952,762.612 900.166,762.864 905.764,782.43 
		905.862,782.507 926.647,782.507 926.859,782.564 926.995,782.739 926.995,782.952 926.859,783.126 925.445,784.192 
		923.257,785.702 918.743,788.512 909.581,793.897 909.542,794.013 916.922,814.508 916.942,814.721 916.728,814.973 
		916.438,814.953 915.759,814.623 914.539,813.907 913.358,813.074 912.253,812.202 899.74,801.084 899.604,801.084 
		882.906,816.058 882.674,816.154 882.499,816.115 882.17,815.903 882.112,815.748 882.131,815.573 889.899,794.032 
		889.861,793.917 871.826,783.533 871.652,783.281 871.671,783.106 871.826,782.661 872.116,782.507 893.561,782.507 
		893.657,782.43 899.276,762.825 899.411,762.632 899.623,762.554 	"/>
	<polyline fill="#FF7100" points="976.156,824.032 976.156,824.071 976.486,824.091 976.699,824.343 982.297,843.908 
		982.395,843.985 1003.18,843.985 1003.392,844.043 1003.529,844.218 1003.529,844.431 1003.392,844.604 1001.978,845.671 
		999.79,847.181 995.277,849.99 986.115,855.376 986.075,855.491 993.455,875.986 993.475,876.199 993.261,876.451 992.971,876.432 
		992.292,876.102 991.073,875.386 989.891,874.553 988.786,873.681 976.273,862.563 976.137,862.563 959.44,877.536 
		959.207,877.633 959.032,877.594 958.703,877.382 958.645,877.227 958.664,877.052 966.432,855.511 966.394,855.396 
		948.36,845.012 948.185,844.76 948.204,844.585 948.36,844.14 948.65,843.985 970.094,843.985 970.191,843.908 975.809,824.304 
		975.945,824.11 976.156,824.032 	"/>
	<polyline fill="#FF7100" points="1035.876,899.894 1035.876,899.933 1036.205,899.952 1036.419,900.204 1042.017,919.77 
		1042.115,919.847 1062.9,919.847 1063.112,919.904 1063.248,920.079 1063.248,920.292 1063.112,920.466 1061.698,921.532 
		1059.51,923.042 1054.996,925.852 1045.834,931.237 1045.795,931.353 1053.175,951.848 1053.195,952.061 1052.981,952.313 
		1052.691,952.293 1052.012,951.963 1050.792,951.247 1049.611,950.414 1048.506,949.542 1035.992,938.424 1035.857,938.424 
		1019.159,953.397 1018.927,953.494 1018.752,953.455 1018.423,953.243 1018.365,953.088 1018.384,952.913 1026.152,931.372 
		1026.114,931.257 1008.079,920.873 1007.905,920.621 1007.924,920.446 1008.079,920.001 1008.369,919.847 1029.814,919.847 
		1029.91,919.77 1035.529,900.165 1035.664,899.972 1035.876,899.894 	"/>
</g>
<g id="Head">
	<path fill="#FF7100" d="M891.845,342.129c0-6.413-33.781-44.163-105.281,3.337c-5.966,3.964-36.693-28.372-47.25-24.045
		c-70.25,28.795-121.75,74.961-190.915,92.076c-9.701,2.4-40.501,16.052-42.835,29.219c58.5-23.833,116.167-2.167,116.5,59.5
		c0.161,29.778-9.5,59.5-43.5,91.5c59.75,24.103,198.667,125,206.667,268c57.667-172-11.682-264.682-25-299.333
		c-19.667-51.167,44.833-195.667,122.083-184.167C892.326,379.707,891.845,353.466,891.845,342.129z"/>
</g>
<g id="Wings">
	<path fill="#FF7100" d="M348.064,31.216c-13.5,12.5-81.5,78.5-71.425,231.388C284.407,380.5,380.275,570.8,505.564,607.716
		c112,33,365,205,222,448c36.011-198.763-24.645-278.794-294-382c-102.246-39.177-253.08-217.863-224-417
		C232.564,99.216,315.064,37.216,348.064,31.216z"/>
	<path fill="#FF7100" d="M226.23,120.716c-8.356,17.118-49.099,45.981-46.667,258c1,59,58.565,267.318,253.824,331.005
		c171.676,55.995,372.176,138.495,247.176,401.352c10.5-191.356-70-225.356-338-320.356c-137.138-48.612-282.183-194.733-231-443
		C139.564,216.049,201.137,133.008,226.23,120.716z"/>
	<path fill="#FF7100" d="M113.609,250.827c0,0-34.045,61.222-39.067,224.58C69.865,627.491,180.564,786.716,304.23,824.05
		c228.566,69.002,355.333,122.667,355.333,262.667c0,110.666-299.008,224.501-438.5,273.999c438.5-253,388.5-322,69.593-438.031
		C128.589,863.718-15.936,753.216-15.936,561.216C-15.936,408.216,113.609,250.827,113.609,250.827z"/>
</g>
</svg>
