<?xml version="1.0" encoding="utf-8"?>
<!DOCTYPE svg PUBLIC "-//W3C//DTD SVG 1.1//EN" "http://www.w3.org/Graphics/SVG/1.1/DTD/svg11.dtd">
<svg version="1.1" id="Layer_1" xmlns="http://www.w3.org/2000/svg" xmlns:xlink="http://www.w3.org/1999/xlink" x="0px" y="0px"
	 width="827.381px" height="740.395px" viewBox="0 0 827.381 740.395" enable-background="new 0 0 827.381 740.395"
	 xml:space="preserve">
<g id="Layer_2">
	<path fill="#FF6F00" d="M307.591,19c12.15,0,22,9.85,22,22v110c0,12.15-9.85,22-22,22c-12.15,0-22-9.85-22-22V41
		C285.591,28.85,295.441,19,307.591,19 M307.591,0c-22.607,0-41,18.393-41,41v110c0,22.607,18.393,41,41,41
		c22.607,0,41-18.393,41-41V41C348.591,18.393,330.199,0,307.591,0L307.591,0z"/>
	<path fill="#FF6F00" d="M309.091,183c20.436,0,37,8.059,37,18s-16.564,18-37,18c-20.435,0-37-8.059-37-18S288.657,183,309.091,183
		 M285.841,166.918c-19.996,5.466-32.875,18.151-32.875,34.082c0,21.439,23.614,37,56.063,37c32.448,0,56.03-15.561,56.03-37
		c0-15.276-12.19-27.567-30.804-33.372l-0.009,9.872l-48.438-0.063L285.841,166.918z"/>
	<g>
		<path fill="#FF6F00" d="M509.591,49.833c41.237,0,74.667,33.43,74.667,74.667s-33.43,74.667-74.667,74.667
			s-74.667-33.43-74.667-74.667S468.354,49.833,509.591,49.833 M509.591,30.833c-51.647,0-93.667,42.019-93.667,93.667
			s42.02,93.667,93.667,93.667c51.648,0,93.667-42.019,93.667-93.667S561.24,30.833,509.591,30.833L509.591,30.833z"/>
	</g>
	<path fill="#FF6F00" d="M744.681,91.82l-171.56,96.45l12.45,14.8l155.14-87.22l9.54,10.64l16.97-9.54L744.681,91.82z"/>
	<path fill="#FF6F00" d="M709.681,73.82l-128.614,72.304c-4.006,13.258-11.595,24.956-21.646,33.971L705.711,97.85l9.481,10.547
		l16.877-9.488L709.681,73.82z"/>
	<path fill="#FF6F00" d="M674.681,55.82l-92.337,51.91c1.238,5.394,1.914,11.001,1.914,16.771c0,1.348-0.04,2.686-0.109,4.016
		l86.563-48.666l9.495,10.54l16.891-9.495L674.681,55.82z"/>
	<path fill="#FF6F00" d="M781.681,108.82l-14.46,8.13l-16.97,9.54l-155.55,87.44l12.449,14.8l170.561-95.88l20.09,22.39
		l-181.8,108.2l-75.233-71.096c-6.387,2.94-13.254,5.01-20.459,6.046l91.543,89.63l215.529-128.26L781.681,108.82z"/>
	<path fill="#FF6F00" d="M0,169.67l180.154,109.885l8.13-17.549L23.449,163.083l7.083-15.923l-16.585-9.801L0,169.67z"/>
	<path fill="#FF6F00" d="M0,210.67l180.154,109.885l8.13-17.549L23.449,204.083l7.191-15.725L14.149,178.3L0,210.67z"/>
	<path fill="#FF6F00" d="M212.466,193.875l-9.875,21.75V349.75l-14.557-5.619l-164.71-98.985l7.207-15.784l-16.413-10.045
		l-14.134,32.362L179.896,361.56l38.695,9.94v-150l15.534-35.776L26.559,65.91l-26.807,63.011l180.401,106.642l8.13-17.538
		L23.169,122.361l11.768-27.683L212.466,193.875z"/>
	<path fill="#FF6F00" d="M485.591,210.494l46,0.029v47.211c-1,2.378-9.916,7.227-23,7.227s-21-4.849-23-7.227V210.5V210.494z
		 M466.591,200.438V258.5c0,14.178,19.01,25.461,42,25.461s42-11.284,42-25.461v-58L466.591,200.438L466.591,200.438z"/>
	<polygon fill="#FF6F00" points="540.683,268.408 570.851,298.02 602.705,279.064 604.705,255.064 572.851,274.02 542.683,244.408"/>
	<path fill="#FF6F00" d="M255.168,448.11c-6.971-12.68-20.577-25.852-33.577-33.221v0.011l-119.407,68.149
		c-8.06,5.221-11.721,15.24-9.991,27.393c1.23,8.59,5.049,18.219,10.799,27.09c8.29,12.777,22.45,26.438,37.36,26.438
		c3.98,0,7.77-0.988,11.05-2.898l116.023-77.041C266.063,475.5,263.896,463.985,255.168,448.11z M144.671,548.79
		c-1.25,0.811-2.71,1.201-4.33,1.201c-7.3,0-17.72-7.871-25.62-20.063c-9.65-14.879-11.89-30.568-5-35.027
		c1.25-0.813,2.71-1.201,4.33-1.201c7.3,0,17.72,7.871,25.62,20.051C149.321,528.629,151.562,544.321,144.671,548.79z M162.661,539
		c0-1.861-0.14-3.801-0.43-5.801c-1.22-8.59-5.29-18.25-11.04-27.119c-5.67-8.74-14.16-17.92-23.76-22.84l92.04-52.063
		c8.79,6.262,15.7,16.4,20.05,25.871c4.4,9.609,5.35,22.459,5.31,31.141L162.661,539z"/>
	<path fill="#FF6F00" d="M495.9,446.5l-18.808-10.365l0,0l-98.302,64.25c0,0-1.992,2.115-8.513,2.115
		c-6.521,0-9.248-2.229-9.248-2.229l-47.722-29.297c0,0-23.233,14.014-31.983,14.014c-3.64,0-13.953-2.424-15.08-7.537
		c-0.607-2.754-42.655-58.813-42.655-58.813v-26.525l243-138.902v-21.742l-0.936,0.535L214.405,375.62l-9.814,5.473v11.02v26.525
		v6.229l13.093-4.136l44.747,55.614l-7.703,16.115C260.299,488.885,272.086,504,281.56,504c7.041,0,15.373-2.717,27.823-9.084
		c1.225-0.627,2.423-1.252,3.561-1.859l47.453,29.135c0,0,3.149,2.311,10.256,2.311c7.105,0,10.076-2.695,10.076-2.695
		L495.902,446.5H495.9z"/>
	<g>
		<path fill="#FF6F00" d="M560.091,320.167l117.5,70.667V421.5c0,0-73.053,54.5-94.75,54.5c-12.416,0-104.791-56.834-104.791-56.834
			c-4.411-4.41-3.302-41.58,0.364-45.246L560.091,320.167 M559.798,297.727l-9.98,6.566l-81.72,53.753l-1.622,1.067l-1.373,1.373
			c-5.138,5.139-6.697,12.104-7.619,18.864c-0.645,4.722-1.061,10.602-1.173,16.555c-0.083,4.365-0.042,10.844,0.622,16.912
			c0.729,6.673,2.224,14.242,7.767,19.785l1.58,1.58l1.903,1.17c0.234,0.145,23.632,14.516,48.248,28.695
			c14.594,8.404,26.807,15.129,36.298,19.986C570.655,493.206,577.406,495,583.008,495c9.484,0,24.734-3.602,65.93-30.307
			c21.288-13.803,39.397-27.383,40.165-27.953l7.488-5.697V421.5v-30.668v-10.752l-9.051-5.535l-117.583-70.667L559.798,297.727
			L559.798,297.727z"/>
	</g>
	<path fill="#FF6F00" d="M661.759,381.125l-79.293,52.25c-3.666,3.666-4.958,39.625-4.237,43.465c2.055,0,9.473,0.682,13.779-0.84
		c-0.44-7.586-0.491-26.271,1.264-36.07l79.409-52.246L661.759,381.125z"/>
	<line fill="none" stroke="#FF6F00" stroke-width="19" stroke-miterlimit="10" x1="567.091" y1="310.5" x2="567.091" y2="283.5"/>
	<line fill="none" stroke="#FF6F00" stroke-width="19" stroke-miterlimit="10" x1="429.258" y1="260.5" x2="355.591" y2="208.457"/>
	<line fill="none" stroke="#FF6F00" stroke-width="19" stroke-miterlimit="10" x1="396.258" y1="281.5" x2="322.591" y2="229.457"/>
	<path fill="#FF6F00" d="M254.591,233.5c0,15.82,30.636,26.75,53.922,26.75c10.522,0,21.078-3.886,29.078-7.75l-0.16,52.797
		l-82.84,47.353V233.5 M254.591,210.5h-15v159l111-69v-42v-7.25L254.591,210.5z"/>
	<line fill="none" stroke="#FF6F00" stroke-width="19" stroke-miterlimit="10" x1="220.591" y1="202.459" x2="247.091" y2="218.705"/>
	<line fill="none" stroke="#FF6F00" stroke-width="19" stroke-miterlimit="10" x1="226.091" y1="378" x2="204.841" y2="356.75"/>
	<path fill="#FF6F00" d="M519.591,497.5v199.551l-23,12V509.5L519.591,497.5 M538.591,466.157l-27.789,14.498l-23,12l-10.211,5.328
		V509.5v199.551v31.344l27.789-14.5l23-12l10.211-5.326v-11.518V497.5V466.157L538.591,466.157z"/>
	<line fill="none" stroke="#FF6F00" stroke-width="19" stroke-miterlimit="10" x1="483.841" y1="447.75" x2="494.902" y2="495"/>
	<line fill="none" stroke="#FF6F00" stroke-width="19" stroke-miterlimit="10" x1="519.591" y1="455.225" x2="528.902" y2="495"/>
</g>
</svg>
